<?xml version="1.0" encoding="UTF-8"?>
<svg width="20px" height="20px" viewBox="0 0 20 20" version="1.1" xmlns="http://www.w3.org/2000/svg" xmlns:xlink="http://www.w3.org/1999/xlink">
    <!-- Generator: Sketch 64 (93537) - https://sketch.com -->
    <title>icon / add clothes</title>
    <desc>Created with Sketch.</desc>
    <g id="icon-/-add-clothes" stroke="none" stroke-width="1" fill="none" fill-rule="evenodd">
        <circle id="Oval" fill="#4A90E2" cx="10" cy="10" r="10"></circle>
        <g id="noun_Tshirt_139522" transform="translate(3.000000, 3.000000)" fill="#FAD02C" fill-rule="nonzero">
            <path d="M13.9921447,6.04169521 L12.9338253,2.31740131 C12.8250995,1.93534761 12.6314181,1.46683263 12.0944042,1.23293932 L9.30246606,0.0167562081 C9.24810255,-0.00707011349 9.18547184,-0.00540536758 9.13152194,0.0212302068 C9.07798622,0.047969732 9.03891931,0.0970790317 9.02465642,0.155552382 C9.01450221,0.197040379 9.00256543,0.236551512 8.99148076,0.277025011 C8.70493865,0.607082068 7.89626445,0.835799233 7,0.835799233 C6.10373564,0.835799233 5.29506145,0.607082068 5.00851935,0.277025011 C4.9974347,0.236551512 4.98549791,0.197040379 4.97534369,0.155552382 C4.96108079,0.097079016 4.92201388,0.047969732 4.86847817,0.0212302068 C4.81473536,-0.00540536758 4.75231115,-0.00707011349 4.69753464,0.0167562081 L1.90538941,1.23293932 C1.36816825,1.46683263 1.17469414,1.93545184 1.06617497,2.31750526 L0.00785531,6.04169521 C-0.00806079236,6.09767146 0.000413952157,6.15791358 0.031419488,6.2071269 C0.0622182127,6.25644414 0.112447086,6.29005093 0.169497118,6.29972668 L3.02778715,6.78291225 C3.09971967,6.79487776 3.16896529,6.76813786 3.2140267,6.71642751 L3.2183674,13.7955517 C3.2183674,13.9085448 3.30931681,14 3.42155645,14 L10.5784437,14 C10.632393,14 10.6840684,13.9784621 10.7221028,13.9400697 C10.7603425,13.9016773 10.7816324,13.8496551 10.7816324,13.7953426 L10.7781183,6.70706358 C10.8227667,6.76470471 10.8965592,6.7949817 10.9720061,6.78291225 L13.8305033,6.29972668 C13.8875525,6.29005092 13.9377824,6.25644414 13.9685809,6.2071269 C13.9995859,6.15791358 14.0080608,6.09767146 13.9921447,6.04169521 Z M7.00000005,1.24490438 C7.68547902,1.24490438 8.30739684,1.12470641 8.75800974,0.92006274 C8.36506735,1.76121508 7.73105728,2.25944804 7.00000005,2.25944804 C6.26894282,2.25944804 5.63493274,1.76121508 5.24199035,0.92006274 C5.69260326,1.12470641 6.31452108,1.24490438 7.00000005,1.24490438 Z M4.64379182,0.485791502 C5.04231512,1.81996167 5.94891471,2.66855349 7.00000005,2.66855349 C8.05108539,2.66855349 8.95768498,1.81996167 9.35620887,0.485791502 L9.63779016,0.608447678 C9.48942896,2.02011843 8.36372331,3.12156571 7.00000005,3.12156571 C5.63632842,3.12156571 4.51044237,2.02015727 4.36200403,0.608525492 L4.64379182,0.485791502 Z M2.92154173,6.35008458 L0.461155107,5.9342165 L0.575332699,5.53236832 L3.05259147,5.93714306 L2.92154173,6.35008458 Z M3.624539,13.5908943 L3.62422894,13.0727501 L10.3749962,13.0727501 L10.3752549,13.5908943 L3.624539,13.5908943 Z M10.8756823,5.74465965 L10.767163,5.4168005 C10.7355385,5.32149518 10.6390082,5.26375009 10.5416506,5.27946057 C10.4432594,5.29558803 10.3711201,5.38121699 10.3711201,5.4815164 L10.3748929,12.8681978 L3.62409958,12.8681978 L3.61957819,5.46247613 C3.61957819,5.3616564 3.54661198,5.27592351 3.44760096,5.2604203 C3.34879703,5.2460623 3.25309361,5.30432768 3.22291491,5.40036122 L3.1150676,5.74017273 L0.631581869,5.33438364 L1.45684375,2.43008201 C1.58334613,1.98518517 1.76565827,1.73953469 2.06661783,1.6083339 L4.1692015,0.692451042 C4.35492421,2.17643321 5.5519936,3.32611829 7.00000005,3.32611829 C8.44805813,3.32611829 9.64492042,2.17642007 9.83061818,0.692451042 L11.9331757,1.6083339 C12.234135,1.73953471 12.4166545,1.98518519 12.5431562,2.42997807 L13.3692448,5.33721883 L10.8756823,5.74465965 Z M11.0761842,6.35050094 L10.9407424,5.94121359 L13.4254941,5.53520348 L13.5388449,5.93411254 L11.0761842,6.35050094 Z" id="Shape"></path>
            <path d="M9.8624073,12 L9.64607009,12 C9.57012758,12 9.50847739,11.9591444 9.50847739,11.9087245 C9.50847739,11.8583046 9.57012758,11.817449 9.64607009,11.817449 L9.74947499,11.817449 C9.77441533,11.7938635 9.81560932,11.7783569 9.8624073,11.7783569 C9.9383498,11.7783569 10,11.8192125 10,11.8696325 L10,11.9087245 C10,11.9591444 9.9383498,12 9.8624073,12 Z M8.81967233,12 L8.54420615,12 C8.46826444,12 8.40661344,11.9591444 8.40661344,11.9087245 C8.40661344,11.8583046 8.46826444,11.817449 8.54420615,11.817449 L8.81967233,11.817449 C8.89561484,11.817449 8.95726504,11.8583046 8.95726504,11.9087245 C8.95726504,11.9591444 8.89561484,12 8.81967233,12 Z M7.71808917,12 L7.44262298,12 C7.36668127,12 7.30503028,11.9591444 7.30503028,11.9087245 C7.30503028,11.8583046 7.36668127,11.817449 7.44262298,11.817449 L7.71808917,11.817449 C7.79403168,11.817449 7.85568187,11.8583046 7.85568187,11.9087245 C7.85568187,11.9591444 7.79403168,12 7.71808917,12 Z M6.61650598,12 L6.34103979,12 C6.26509728,12 6.20344709,11.9591444 6.20344709,11.9087245 C6.20344709,11.8583046 6.26509728,11.817449 6.34103979,11.817449 L6.61650598,11.817449 C6.69244769,11.817449 6.75409868,11.8583046 6.75409868,11.9087245 C6.75409868,11.9591444 6.69244769,12 6.61650598,12 Z M5.51464206,12 L5.23917667,12 C5.16323416,12 5.10158397,11.9591444 5.10158397,11.9087245 C5.10158397,11.8583046 5.16323416,11.817449 5.23917667,11.817449 L5.51464206,11.817449 C5.59058457,11.817449 5.65223476,11.8583046 5.65223476,11.9087245 C5.65223476,11.9591444 5.59058457,12 5.51464206,12 Z M4.41305889,12 L4.13759351,12 C4.061651,12 4,11.9591444 4,11.9087245 L4,11.8585829 C4,11.808163 4.061651,11.7673074 4.13759351,11.7673074 C4.19139686,11.7673074 4.23791565,11.7877346 4.26061394,11.817449 L4.41305889,11.817449 C4.4890014,11.817449 4.5506516,11.8583046 4.5506516,11.9087245 C4.5506516,11.9591444 4.4890014,12 4.41305889,12 Z M9.8624073,11.4133466 C9.78646479,11.4133466 9.72481459,11.372491 9.72481459,11.3220711 L9.72481459,11.13952 C9.72481459,11.0891001 9.78646479,11.0482445 9.8624073,11.0482445 C9.9383498,11.0482445 10,11.0891001 10,11.13952 L10,11.3220711 C10,11.372491 9.9383498,11.4133466 9.8624073,11.4133466 Z M4.13759351,11.402297 C4.061651,11.402297 4,11.3614414 4,11.3110215 L4,11.1284705 C4,11.0780505 4.061651,11.0371949 4.13759351,11.0371949 C4.21353521,11.0371949 4.27518621,11.0780505 4.27518621,11.1284705 L4.27518621,11.3110215 C4.27518621,11.3614414 4.21353521,11.402297 4.13759351,11.402297 Z M9.8624073,10.6832342 C9.78646479,10.6832342 9.72481459,10.6423785 9.72481459,10.5919586 L9.72481459,10.4095004 C9.72481459,10.3590805 9.78646479,10.3182249 9.8624073,10.3182249 C9.9383498,10.3182249 10,10.3590805 10,10.4095004 L10,10.5919586 C10,10.6423785 9.9383498,10.6832342 9.8624073,10.6832342 Z M4.13759351,10.6721846 C4.061651,10.6721846 4,10.631329 4,10.5809091 L4,10.398358 C4,10.3479381 4.061651,10.3070825 4.13759351,10.3070825 C4.21353521,10.3070825 4.27518621,10.3479381 4.27518621,10.398358 L4.27518621,10.5809091 C4.27518621,10.631329 4.21353521,10.6721846 4.13759351,10.6721846 Z M9.8624073,9.9532145 C9.78646479,9.9532145 9.72481459,9.91235889 9.72481459,9.86193899 L9.72481459,9.67938795 C9.72481459,9.62896805 9.78646479,9.58811244 9.8624073,9.58811244 C9.9383498,9.58811244 10,9.62896805 10,9.67938795 L10,9.86193899 C10,9.91235889 9.9383498,9.9532145 9.8624073,9.9532145 Z M4.13759351,9.94207215 C4.061651,9.94207215 4,9.90121654 4,9.85079664 L4,9.66833838 C4,9.61791847 4.061651,9.5770618 4.13759351,9.5770618 C4.21353521,9.5770618 4.27518621,9.61791847 4.27518621,9.66833838 L4.27518621,9.85079664 C4.27518621,9.90121654 4.21353521,9.94207215 4.13759351,9.94207215 Z M9.8624073,9.22310208 C9.78646479,9.22310208 9.72481459,9.18224647 9.72481459,9.13182656 L9.72481459,8.949275 C9.72481459,8.89885509 9.78646479,8.85799948 9.8624073,8.85799948 C9.9383498,8.85799948 10,8.89885509 10,8.949275 L10,9.13182656 C10,9.18224647 9.9383498,9.22310208 9.8624073,9.22310208 Z M4.13759351,9.2120525 C4.061651,9.2120525 4,9.17119636 4,9.12077699 L4,8.93822542 C4,8.88780552 4.061651,8.8469499 4.13759351,8.8469499 C4.21353521,8.8469499 4.27518621,8.88780552 4.27518621,8.93822542 L4.27518621,9.12077699 C4.27518621,9.17119634 4.21353521,9.2120525 4.13759351,9.2120525 Z M9.8624073,8.49298966 C9.78646479,8.49298966 9.72481459,8.45213351 9.72481459,8.40171361 L9.72481459,8.21925535 C9.72481459,8.16883544 9.78646479,8.12797983 9.8624073,8.12797983 C9.9383498,8.12797983 10,8.16883544 10,8.21925535 L10,8.40171361 C10,8.45213351 9.9383498,8.49298966 9.8624073,8.49298966 Z M4.13759351,8.48194008 C4.061651,8.48194008 4,8.44108394 4,8.39066403 L4,8.208113 C4,8.15769309 4.061651,8.11683695 4.13759351,8.11683695 C4.21353521,8.11683695 4.27518621,8.15769309 4.27518621,8.208113 L4.27518621,8.39066403 C4.27518621,8.44108394 4.21353521,8.48194008 4.13759351,8.48194008 Z M9.8624073,7.7628767 C9.78646479,7.7628767 9.72481459,7.72202109 9.72481459,7.67160118 L9.72481459,7.48914292 C9.72481459,7.43872302 9.78646479,7.39786687 9.8624073,7.39786687 C9.9383498,7.39786687 10,7.43872302 10,7.48914292 L10,7.67160118 C10,7.72202109 9.9383498,7.7628767 9.8624073,7.7628767 Z M4.13759351,7.75182712 C4.061651,7.75182712 4,7.71097151 4,7.66055161 L4,7.47809335 C4,7.42767344 4.061651,7.3868173 4.13759351,7.3868173 C4.21353521,7.3868173 4.27518621,7.42767344 4.27518621,7.47809335 L4.27518621,7.66055161 C4.27518621,7.71097151 4.21353521,7.75182712 4.13759351,7.75182712 Z M9.8624073,7.03285705 C9.78646479,7.03285705 9.72481459,6.99200144 9.72481459,6.94158153 L9.72481459,6.75902997 C9.72481459,6.70861006 9.78646479,6.66775445 9.8624073,6.66775445 C9.9383498,6.66775445 10,6.70861006 10,6.75902997 L10,6.94158153 C10,6.99200142 9.9383498,7.03285705 9.8624073,7.03285705 Z M4.13759351,7.02180746 C4.061651,7.02180746 4,6.98095185 4,6.93053194 L4,6.74798038 C4,6.69756047 4.061651,6.65670486 4.13759351,6.65670486 C4.21353521,6.65670486 4.27518621,6.69756047 4.27518621,6.74798038 L4.27518621,6.93053194 C4.27518621,6.98095185 4.21353521,7.02180746 4.13759351,7.02180746 Z M9.8624073,6.30274462 C9.78646479,6.30274462 9.72481459,6.26188901 9.72481459,6.21146911 L9.72481459,6.02891754 C9.72481459,5.97849764 9.78646479,5.93764203 9.8624073,5.93764203 C9.9383498,5.93764203 10,5.97849764 10,6.02891754 L10,6.21146911 C10,6.26188901 9.9383498,6.30274462 9.8624073,6.30274462 Z M4.13759351,6.29169505 C4.061651,6.29169505 4,6.25083891 4,6.20041953 L4,6.01786797 C4,5.96744806 4.061651,5.92659245 4.13759351,5.92659245 C4.21353521,5.92659245 4.27518621,5.96744806 4.27518621,6.01786797 L4.27518621,6.20041953 C4.27518621,6.25083889 4.21353521,6.29169505 4.13759351,6.29169505 Z M9.8624073,5.5726322 C9.78646479,5.5726322 9.72481459,5.53177606 9.72481459,5.48135615 L9.72481459,5.29889789 C9.72481459,5.24847799 9.78646479,5.20762238 9.8624073,5.20762238 C9.9383498,5.20762238 10,5.24847799 10,5.29889789 L10,5.48135615 C10,5.53177606 9.9383498,5.5726322 9.8624073,5.5726322 Z M4.13759351,5.56158262 C4.061651,5.56158262 4,5.52072648 4,5.47030658 L4,5.28784831 C4,5.23742841 4.061651,5.19657227 4.13759351,5.19657227 C4.21353521,5.19657227 4.27518621,5.23742841 4.27518621,5.28784831 L4.27518621,5.47030658 C4.27518621,5.52072647 4.21353521,5.56158262 4.13759351,5.56158262 Z M9.34930701,5.18255156 L9.07412078,5.18255156 C8.99817907,5.18255156 8.93652808,5.14169542 8.93652808,5.09127605 C8.93652808,5.04085614 8.99817907,5 9.07412078,5 L9.34930701,5 C9.42524872,5 9.48689972,5.04085614 9.48689972,5.09127605 C9.48689972,5.14169542 9.42524872,5.18255156 9.34930701,5.18255156 Z M8.24772302,5.18255156 L7.97225764,5.18255156 C7.89631513,5.18255156 7.83466493,5.14169542 7.83466493,5.09127605 C7.83466493,5.04085614 7.89631513,5 7.97225764,5 L8.24772302,5 C8.32366553,5 8.38531653,5.04085614 8.38531653,5.09127605 C8.38531653,5.14169542 8.32366555,5.18255156 8.24772302,5.18255156 Z M7.14613986,5.18255156 L6.87067447,5.18255156 C6.79473196,5.18255156 6.73308177,5.14169542 6.73308177,5.09127605 C6.73308177,5.04085614 6.79473196,5 6.87067447,5 L7.14613986,5 C7.22208237,5 7.28373256,5.04085614 7.28373256,5.09127605 C7.28373256,5.14169542 7.22208237,5.18255156 7.14613986,5.18255156 Z M6.04427674,5.18255156 L5.76909131,5.18255156 C5.6931488,5.18255156 5.6314978,5.14169542 5.6314978,5.09127605 C5.6314978,5.04085614 5.6931488,5 5.76909131,5 L6.04427674,5 C6.12021925,5 6.18186944,5.04085614 6.18186944,5.09127605 C6.18186944,5.14169542 6.12021925,5.18255156 6.04427674,5.18255156 Z M4.94269355,5.18255156 L4.66722736,5.18255156 C4.59128485,5.18255156 4.52963466,5.14169542 4.52963466,5.09127605 C4.52963466,5.04085614 4.59128485,5 4.66722736,5 L4.94269355,5 C5.01863526,5 5.08028625,5.04085614 5.08028625,5.09127605 C5.08028625,5.14169542 5.01863528,5.18255156 4.94269355,5.18255156 Z" id="Shape"></path>
            <polygon id="Path" points="6.64903415 10 6.64903415 8.34248919 5 8.34248919 5 7.64901948 6.64903415 7.64901948 6.64903415 6 7.35096585 6 7.35096585 7.64901948 9 7.64901948 9 8.34248919 7.35096585 8.34248919 7.35096585 10"></polygon>
        </g>
    </g>
</svg>