<?xml version="1.0" encoding="UTF-8"?>
<svg width="20px" height="20px" viewBox="0 0 20 20" version="1.1" xmlns="http://www.w3.org/2000/svg" xmlns:xlink="http://www.w3.org/1999/xlink">
    <!-- Generator: Sketch 63.1 (92452) - https://sketch.com -->
    <title>icon / camera</title>
    <desc>Created with Sketch.</desc>
    <g id="icon-/-camera" stroke="none" stroke-width="1" fill="none" fill-rule="evenodd">
        <circle id="Oval" fill="#4A90E2" cx="10" cy="10" r="10"></circle>
        <g id="noun_Camera_1556564" transform="translate(3.000000, 4.000000)" fill="#FAD02C" fill-rule="nonzero">
            <g id="Group">
                <path d="M1.53658537,11.8890783 C0.69122439,11.8890783 -1.70731706e-08,11.1849739 -1.70731706e-08,10.3238609 L-1.70731706e-08,3.36733913 C-1.70731706e-08,2.50622609 0.69122439,1.80212174 1.53658537,1.80212174 L3.6974,1.80212174 L4.29496098,0.285810435 C4.34521214,0.152890865 4.46993552,0.064606068 4.6097561,0.0629843478 L9.3902439,0.0629843478 C9.53006448,0.064606068 9.65478786,0.152890865 9.70503902,0.285810435 L10.3026,1.80212174 L12.4634146,1.80212174 C13.3087756,1.80212174 14,2.50622609 14,3.36733913 L14,10.3238609 C14,11.1849739 13.3087756,11.8890783 12.4634146,11.8890783 L1.53658537,11.8890783 Z M1.53658537,11.1934261 L12.4634146,11.1934261 C12.9422488,11.1934261 13.3170732,10.8116174 13.3170732,10.3238609 L13.3170732,3.36733913 C13.3170732,2.87958261 12.9422488,2.49777391 12.4634146,2.49777391 L10.0731707,2.49777391 C9.93467022,2.49704068 9.81032078,2.41116741 9.75837561,2.28038261 L9.16081463,0.758636522 L4.83918537,0.758636522 L4.24162439,2.28038261 C4.18967922,2.41116741 4.06532978,2.49704068 3.92682927,2.49777391 L1.53658537,2.49777391 C1.05775122,2.49777391 0.682926829,2.87958261 0.682926829,3.36733913 L0.682926829,10.3238609 C0.682926829,10.8116174 1.05775122,11.1934261 1.53658537,11.1934261 Z M7,9.97603478 C5.30680244,9.97603478 3.92682927,8.57036522 3.92682927,6.8456 C3.92682927,5.12081739 5.30680244,3.71516522 7,3.71516522 C8.69323171,3.71516522 10.0731707,5.12083478 10.0731707,6.8456 C10.0731707,8.57036522 8.69323171,9.97603478 7,9.97603478 Z M7,9.28038261 C8.3241439,9.28038261 9.3902439,8.1944 9.3902439,6.8456 C9.3902439,5.49678261 8.3241439,4.41081739 7,4.41081739 C5.67589024,4.41081739 4.6097561,5.49678261 4.6097561,6.8456 C4.6097561,8.1944 5.67589024,9.28038261 7,9.28038261 Z" id="Shape"></path>
            </g>
        </g>
    </g>
</svg>