<?xml version="1.0" encoding="utf-8"?>
<!-- Generator: Adobe Illustrator 23.0.3, SVG Export Plug-In . SVG Version: 6.00 Build 0)  -->
<svg version="1.1" id="Layer_1" xmlns="http://www.w3.org/2000/svg" xmlns:xlink="http://www.w3.org/1999/xlink" x="0px" y="0px"
	 viewBox="0 0 90 112.5" style="enable-background:new 0 0 90 112.5;" xml:space="preserve">
<style type="text/css">
	.st0{fill:#FAD02C;}
</style>
<path d="M68.9,51.6l-0.3,0C68.4,49,66.3,47,63.7,47c-1,0-2,0.3-2.8,0.9c-0.9-1.3-2.2-2.2-3.7-2.8c0.3-1.1,0.5-2.2,0.5-3.4
	c0-7.2-5.9-13.1-13.1-13.1c-6.2,0-11.5,4.3-12.8,10.3c-1.5-0.5-3-0.8-4.6-0.8c-7.5,0-13.7,6.1-13.7,13.7c0,0.8,0.1,1.6,0.2,2.4
	C10.6,56.4,8.7,60,8.7,64c0,6.7,5.5,12.2,12.2,12.2l48.1,0.2c6.8,0,12.4-5.6,12.4-12.4S75.8,51.6,68.9,51.6z M68.9,74.4l-48.1-0.2
	c-5.6,0-10.2-4.6-10.2-10.2c0-3.5,1.8-6.7,4.7-8.6L16,55l-0.2-0.7c-0.2-0.9-0.3-1.8-0.3-2.6c0-6.4,5.2-11.7,11.7-11.7
	c1.7,0,3.4,0.4,4.9,1.1l1.3,0.6l0.2-1.4c0.6-5.6,5.4-9.8,11-9.8c6.1,0,11.1,5,11.1,11.1c0,1.3-0.2,2.5-0.7,3.7l-0.4,1.1l1.1,0.2
	c1.8,0.4,3.2,1.5,4.1,3.1l0.7,1.3l1-1.1c0.6-0.7,1.4-1,2.2-1c1.6,0,2.9,1.3,2.9,2.9c0,0.2,0,0.3-0.1,0.5l-0.2,1.2l2.6,0
	c5.7,0,10.4,4.7,10.4,10.4S74.7,74.4,68.9,74.4z"/>
<path class="st0" d="M73.1,63.7c0,3.7-3.9,6.7-8.7,6.7l-40.1-0.1c-4.7,0-8.5-3-8.5-6.6c0-2.3,1.5-4.3,3.9-5.6l0.5-0.2l-0.1-0.5
	c-0.2-0.6-0.2-1.1-0.2-1.7c0-4.2,4.4-7.6,9.7-7.6c1.4,0,2.8,0.2,4.1,0.7l1.1,0.4l0.1-0.9c0.5-3.6,4.5-6.4,9.2-6.4
	c5.1,0,9.3,3.2,9.3,7.2c0,0.8-0.2,1.6-0.5,2.4l-0.3,0.7l0.9,0.2c1.5,0.2,2.7,1,3.4,2l0.6,0.8l0.8-0.7c0.5-0.4,1.1-0.7,1.9-0.7
	c1.4,0,2.5,0.9,2.5,1.9c0,0.1,0,0.2,0,0.3L62.3,57h2.1C69.2,57,73.1,60,73.1,63.7z"/>
</svg>
