<?xml version="1.0" encoding="UTF-8"?>
<svg width="20px" height="20px" viewBox="0 0 20 20" version="1.1" xmlns="http://www.w3.org/2000/svg" xmlns:xlink="http://www.w3.org/1999/xlink">
    <!-- Generator: Sketch 63.1 (92452) - https://sketch.com -->
    <title>icon-hat2</title>
    <desc>Created with Sketch.</desc>
    <g id="icon-hat2" stroke="none" stroke-width="1" fill="none" fill-rule="evenodd">
        <g id="noun_hat_3108608">
            <g id="Group">
                <path d="M12.7297778,3.48196591 C12.7297778,2.01939773 11.5053333,0.829306818 10.0004444,0.829306818 C8.49488889,0.829306818 7.27,2.01939773 7.27,3.48196591 C7.27,4.94388636 8.49488889,6.13354545 10.0004444,6.13354545 C11.5053333,6.13354545 12.7297778,4.94410227 12.7297778,3.48196591 Z" id="Path"></path>
                <path d="M17.2471111,14.8148182 L17.2471111,13.8030682 C17.2471111,9.91972727 13.996,6.76032955 10,6.76032955 C10,6.76032955 9.99977778,6.76032955 9.99977778,6.76032955 C9.99955556,6.76032955 9.99933333,6.76032955 9.99911111,6.76032955 C9.99888889,6.76032955 9.99866667,6.76032955 9.99844444,6.76032955 C6.00244444,6.76140909 2.75133333,9.92080682 2.75133333,13.8030682 L2.75133333,14.8148182 L9.99822222,14.8148182 L17.2471111,14.8148182 L17.2471111,14.8148182 Z" id="Path"></path>
                <path d="M17.9497778,15.4416023 L17.5695556,15.4416023 L9.99822222,15.4416023 L2.42888889,15.4416023 L2.04955556,15.4416023 C1.27533333,15.4416023 0.645111111,16.0537045 0.645111111,16.8061477 C0.645111111,17.5585909 1.27511111,18.1706932 2.04955556,18.1706932 L9.99844444,18.1706932 L17.95,18.1706932 C18.7246667,18.1706932 19.3548889,17.5585909 19.3548889,16.8061477 C19.3548889,16.0537045 18.7246667,15.4416023 17.9497778,15.4416023 Z" id="Path"></path>
                <path d="M17.9497778,14.8148182 L17.8922222,14.8148182 L17.8922222,13.8030682 C17.8922222,10.1393068 15.2344444,7.06929545 11.6933333,6.31339773 C12.6971111,5.74469318 13.3748889,4.68976136 13.3748889,3.48196591 C13.3748889,1.67372727 11.8611111,0.202522727 10.0004444,0.202522727 C8.13911111,0.202522727 6.62488889,1.67372727 6.62488889,3.48196591 C6.62488889,4.68976136 7.30266667,5.74447727 8.30666667,6.31318182 C4.76555556,7.06864773 2.10644444,10.1393068 2.10644444,13.8030682 L2.10644444,14.8148182 L2.04977778,14.8148182 C0.919333333,14.8148182 0,15.7080341 0,16.8061477 C0,17.9042614 0.919333333,18.7974773 2.04955556,18.7974773 L9.99844444,18.7974773 L17.95,18.7974773 C19.0804444,18.7974773 20.0002222,17.9042614 20.0002222,16.8061477 C20.0002222,15.7080341 19.0804444,14.8148182 17.9497778,14.8148182 Z M7.27,3.48196591 C7.27,2.01939773 8.49488889,0.829306818 10.0004444,0.829306818 C11.5053333,0.829306818 12.7297778,2.01939773 12.7297778,3.48196591 C12.7297778,4.94388636 11.5053333,6.13354545 10.0004444,6.13354545 C8.49488889,6.13354545 7.27,4.94410227 7.27,3.48196591 Z M2.75133333,13.8030682 C2.75133333,9.92059091 6.00244444,6.76140909 9.99844444,6.76032955 C9.99866667,6.76032955 9.99888889,6.76032955 9.99911111,6.76032955 C9.99933333,6.76032955 9.99955556,6.76032955 9.99977778,6.76032955 C9.99977778,6.76032955 10,6.76032955 10,6.76032955 C13.996,6.76032955 17.2471111,9.91951136 17.2471111,13.8030682 L17.2471111,14.8148182 L9.99822222,14.8148182 L2.75133333,14.8148182 L2.75133333,13.8030682 Z M17.9497778,18.1704773 L9.99822222,18.1704773 L2.04933333,18.1704773 C1.27511111,18.1704773 0.644888889,17.558375 0.644888889,16.8059318 C0.644888889,16.0534886 1.27488889,15.4413864 2.04933333,15.4413864 L2.42866667,15.4413864 L9.99822222,15.4413864 L17.5695556,15.4413864 L17.9497778,15.4413864 C18.7244444,15.4413864 19.3546667,16.0534886 19.3546667,16.8059318 C19.3546667,17.558375 18.7246667,18.1704773 17.9497778,18.1704773 Z" id="Shape" fill="#FFFFFF" fill-rule="nonzero"></path>
            </g>
        </g>
    </g>
</svg>