<?xml version="1.0" encoding="UTF-8"?>
<svg width="20px" height="20px" viewBox="0 0 20 20" version="1.1" xmlns="http://www.w3.org/2000/svg" xmlns:xlink="http://www.w3.org/1999/xlink">
    <!-- Generator: Sketch 63.1 (92452) - https://sketch.com -->
    <title>icon-shorts</title>
    <desc>Created with Sketch.</desc>
    <g id="icon-shorts" stroke="none" stroke-width="1" fill="none" fill-rule="evenodd">
        <g id="noun_shorts_1653378" transform="translate(0.000000, 2.000000)" fill="#FFFFFF" fill-rule="nonzero">
            <g id="Group">
                <path d="M1.54017857,0.0167113846 C1.41415696,0.0449795259 1.32428858,0.160316181 1.32440476,0.293634462 L1.32440476,2.61671138 C1.32410171,2.6243964 1.32410171,2.63209099 1.32440476,2.639776 L1.32440476,2.66284062 L1.11607143,4.92437908 L0.119047619,15.6089846 C0.112339981,15.688493 0.138405047,15.7672351 0.190825345,15.8258238 C0.243245642,15.8844125 0.317151013,15.9174045 0.394345238,15.9166887 L8.69791667,15.9166887 C8.82686676,15.9166887 8.93842627,15.8238944 8.96577381,15.6936123 L10,10.7012923 L11.0342262,15.6936123 C11.0615737,15.8238944 11.1731332,15.9166887 11.3020833,15.9166887 L19.6056548,15.9166887 C19.682849,15.9174045 19.7567544,15.8844125 19.8091747,15.8258238 C19.861595,15.7672351 19.88766,15.688493 19.8809524,15.6089846 L18.891369,4.947456 C18.8916721,4.93977099 18.8916721,4.9320764 18.891369,4.92439138 L18.8690595,4.67823754 L18.6830476,2.67054523 C18.6830812,2.66798535 18.6830812,2.66542511 18.6830476,2.66286523 L18.6830476,2.63980062 C18.6833507,2.6321156 18.6833507,2.62442101 18.6830476,2.616736 L18.6830476,0.293659077 C18.6798798,0.142095987 18.5617917,0.020011067 18.4151905,0.016736 L10.0000119,0.016736 L1.59227381,0.016736 C1.57495213,0.0150252147 1.55751216,0.0150252147 1.54019048,0.016736 L1.54017857,0.0167113846 Z M1.86755952,0.578249846 L10,0.578249846 L18.139881,0.578249846 L18.139881,2.37824985 L6.25744048,2.37824985 L6.24255952,2.37824985 L1.86755952,2.37824985 L1.86755952,0.578249846 Z M1.84525,2.94748062 L5.92263095,2.94748062 C5.80839762,3.91952985 5.06980238,4.66286523 4.13691667,4.66286523 L1.689,4.66286523 L1.84525,2.94748062 Z M6.5029881,2.94748062 L8.13245238,2.94748062 L8.13245238,7.87054769 C8.13245238,8.81932308 8.77863571,9.61710769 9.6279881,9.80132923 L8.47471429,15.3551754 L0.699416667,15.3551754 L1.63691667,5.232096 L4.13691667,5.232096 C5.3775881,5.232096 6.39095714,4.22731569 6.5029881,2.94748062 Z M10.2753095,2.94748062 L13.5044762,2.94748062 C13.61575,4.22731077 14.6224095,5.232096 15.8631071,5.232096 L18.3705476,5.232096 L19.3080476,15.3551754 L11.5253095,15.3551754 L10.2753095,9.32440615 L10.2753095,2.94748062 Z M14.0848333,2.94748062 L18.1547738,2.94748062 L18.3110238,4.66286523 L15.8631071,4.66286523 C14.9301929,4.66286523 14.1990619,3.91953231 14.0848333,2.94748062 Z M8.68304762,2.96286523 L9.72471429,2.96286523 L9.72471429,9.20900923 C9.13519286,9.07227077 8.68304762,8.55101538 8.68304762,7.87054769 L8.68304762,2.96286523 Z" id="Shape"></path>
            </g>
        </g>
    </g>
</svg>