<?xml version="1.0" encoding="UTF-8"?>
<svg width="20px" height="20px" viewBox="0 0 20 20" version="1.1" xmlns="http://www.w3.org/2000/svg" xmlns:xlink="http://www.w3.org/1999/xlink">
    <!-- Generator: Sketch 63.1 (92452) - https://sketch.com -->
    <title>icon-umbrella</title>
    <desc>Created with Sketch.</desc>
    <g id="icon-umbrella" stroke="none" stroke-width="1" fill="none" fill-rule="evenodd">
        <g id="noun_Umbrella_1707539" transform="translate(1.000000, 0.000000)" fill="#FAD02C" fill-rule="nonzero">
            <g id="Group">
                <path d="M8.99999473,0.0795736264 C13.849365,0.0795736264 17.969445,4.34576484 18.0000053,9.30347473 C18.0009166,9.49265119 17.883728,9.66121417 17.7090507,9.72197347 C17.5343735,9.78273277 17.3413854,9.72206087 17.2299107,9.57134066 C16.9571336,9.19762857 16.1711507,8.6510022 15.4285714,8.6510022 C14.6634043,8.6510022 13.8929164,9.19074066 13.6339286,9.56446154 C13.5523528,9.67873703 13.4220929,9.74570244 13.2840096,9.74435157 C13.1459264,9.7430007 13.0169356,9.67349902 12.9375,9.55764835 C12.6805886,9.18347912 11.9120121,8.65104615 11.1428571,8.65104615 C10.47126,8.65104615 9.75565071,9.11338681 9.42857143,9.47523077 L9.42857143,17.4422637 C9.42857143,18.409978 9.98382643,18.9807253 10.9285714,18.9807253 C11.8733636,18.9807473 12.4285714,18.41 12.4285714,17.4422637 C12.4263856,17.2837425 12.5075894,17.1362939 12.6410884,17.056379 C12.7745873,16.9764641 12.9396984,16.9764641 13.0731974,17.056379 C13.2066963,17.1362939 13.2879001,17.2837425 13.2857143,17.4422637 C13.2857143,18.8141978 12.2676793,19.8598462 10.9285714,19.8598462 C9.58950214,19.8598462 8.57142857,18.8141978 8.57142857,17.4422637 L8.57142857,9.47523077 C8.24434929,9.11338681 7.52874,8.65104615 6.85714286,8.65104615 C6.08801143,8.65104615 5.31940714,9.18348571 5.0625,9.55764835 C4.9830644,9.67349902 4.8540736,9.7430007 4.71599037,9.74435157 C4.57790715,9.74570244 4.4476472,9.67873703 4.36607143,9.56446154 C4.10708357,9.19074066 3.33659571,8.6510022 2.57142857,8.6510022 C1.82884286,8.6510022 1.04286214,9.19761758 0.770089286,9.57134066 C0.658614575,9.72206081 0.465626533,9.78273267 0.290949317,9.72197338 C0.116272101,9.66121408 -0.000916466704,9.49265116 -5.2736772e-06,9.30347473 C0.0305764929,4.34576484 4.15065643,0.0795736264 8.99999473,0.0795736264 Z" id="Shape"></path>
            </g>
        </g>
    </g>
</svg>