<?xml version="1.0" encoding="UTF-8"?>
<svg width="20px" height="20px" viewBox="0 0 20 20" version="1.1" xmlns="http://www.w3.org/2000/svg" xmlns:xlink="http://www.w3.org/1999/xlink">
    <!-- Generator: Sketch 63.1 (92452) - https://sketch.com -->
    <title>icon-jumper</title>
    <desc>Created with Sketch.</desc>
    <g id="icon-jumper" stroke="none" stroke-width="1" fill="none" fill-rule="evenodd">
        <g id="noun_Long-Sleeve-T-shirt_139530" fill="#FFFFFF" fill-rule="nonzero">
            <path d="M18.4865803,3.36111481 C18.4124632,2.63651542 17.9834081,2.0684296 17.2779655,1.76134795 L13.2892147,0.0239443167 C13.2112576,-0.0102418916 13.1220801,-0.00756648521 13.0450105,0.0303356722 C12.9685309,0.0685350125 12.9127219,0.138691175 12.8923463,0.222224437 C12.877859,0.281418615 12.8608251,0.337807318 12.8450272,0.395552405 C12.4357203,0.867248119 11.280424,1.19400522 10,1.19400522 C8.71957543,1.19400522 7.56427912,0.867248119 7.15497231,0.395552405 C7.13917438,0.337807318 7.12214049,0.281418615 7.10765311,0.222224437 C7.08727753,0.138691175 7.03146851,0.0685350125 6.95498894,0.0303356722 C6.87821349,-0.00756648521 6.78903689,-0.0102418916 6.71078559,0.0239443167 L2.72203395,1.76134795 C2.01659047,2.0684296 1.58753686,2.63666435 1.51341962,3.36126373 L0.0015445006,18.1479977 C-0.0144010324,18.3040649 0.0948554984,18.4449722 0.248995961,18.4672666 L3.81814319,18.9848172 C3.89698534,18.9964098 3.97671294,18.9750064 4.03901883,18.9250652 C4.10132469,18.8757179 4.14089329,18.8025897 4.14857058,18.722921 L4.5941607,13.9689539 L4.59770412,19.7080793 C4.59770412,19.8692004 4.72763059,20 4.88797205,20 L15.1120285,20 C15.1890989,20 15.2629209,19.9690828 15.3172524,19.9143847 C15.3718823,19.8593896 15.4022964,19.7850718 15.4022964,19.7077806 L15.399638,13.9744533 L15.8514287,18.723515 C15.8591073,18.8028867 15.898675,18.8760149 15.9612767,18.9253622 C16.0235817,18.9747095 16.1033106,18.9961129 16.1818561,18.9848172 L19.7510037,18.4672666 C19.9051446,18.4449722 20.014401,18.3040649 19.9984555,18.1479977 L18.4865803,3.36111481 Z M9.99999973,1.7784412 C10.9792859,1.7784412 11.8676967,1.60672958 12.5114616,1.31432587 C11.9501009,2.51600914 11.0443595,3.22778867 9.99999973,3.22778867 C8.95563991,3.22778867 8.04989855,2.51600914 7.4885379,1.31432587 C8.1323028,1.6067296 9.02071355,1.7784412 9.99999973,1.7784412 Z M9.99999973,3.81222446 C11.50154,3.81222446 12.7966738,2.59995128 13.3659885,0.69399438 L13.7685035,0.869328914 C13.5564131,2.88587042 11.948052,4.45923614 9.99999973,4.45923614 C8.05194746,4.45923614 6.44358637,2.88587042 6.231496,0.869328936 L6.63401096,0.69399438 C7.20332571,2.59995131 8.49845948,3.81222446 9.99999973,3.81222446 Z M0.607475664,17.9289082 L0.673288085,17.2852961 L3.66130817,17.6983183 L3.59903959,18.3626272 L0.607475664,17.9289082 Z M5.17794487,19.4155629 L5.17750193,18.6750603 L14.821409,18.6750603 L14.82176,19.4155629 L5.17794487,19.4155629 Z M15.395504,7.80250067 C15.3807403,7.64732526 15.2493367,7.53569994 15.0925391,7.53852385 C14.9378082,7.54610378 14.8161481,7.67452497 14.8161481,7.83059304 L14.8212615,18.3831396 L5.17731758,18.3831396 L5.17085802,7.80339246 C5.17085802,7.64732524 5.04890427,7.51890408 4.89417294,7.51162025 C4.73826119,7.50775605 4.60597172,7.62042167 4.59150257,7.77604341 L3.68862266,17.4070667 L0.703038262,16.9943978 L2.09100312,3.42101485 C2.15714763,2.77385469 2.59594588,2.45294982 2.95235856,2.29762548 L5.95604774,0.989296092 C6.22145655,3.10915862 7.93145136,4.75145425 9.99999973,4.75145425 C12.0685481,4.75145425 13.7785438,3.10915862 14.0439517,0.989296092 L17.0476409,2.29762589 C17.404054,2.45295022 17.842851,2.77385509 17.9089961,3.42086635 L19.2969237,16.9941196 L16.3094393,17.4070479 L15.395504,7.80250067 Z M16.4003699,18.3626272 L16.3371408,17.6982432 L19.3266749,17.2850179 L19.3925234,17.9289082 L16.4003699,18.3626272 Z" id="Shape"></path>
        </g>
    </g>
</svg>