<?xml version="1.0" encoding="UTF-8"?>
<svg width="20px" height="20px" viewBox="0 0 20 20" version="1.1" xmlns="http://www.w3.org/2000/svg" xmlns:xlink="http://www.w3.org/1999/xlink">
    <!-- Generator: Sketch 63.1 (92452) - https://sketch.com -->
    <title>icon-pants</title>
    <desc>Created with Sketch.</desc>
    <g id="icon-pants" stroke="none" stroke-width="1" fill="none" fill-rule="evenodd">
        <g id="noun_pants_1230171" transform="translate(5.000000, 0.000000)" fill="#FFFFFF" fill-rule="nonzero">
            <path d="M10.7582134,1.3122664 L10.5241932,1.3122664 L10.5241932,0.250003125 C10.5241932,0.111751397 10.4158863,0 10.2824367,0 L0.717585425,0 C0.584135877,0 0.475828997,0.111751397 0.475828997,0.250003125 L0.475828997,1.3122664 L0.241808775,1.3122664 C0.177018052,1.3122664 0.115128407,1.33901674 0.0696781984,1.38676733 C0.0242279899,1.43451793 -0.000914678604,1.49876873 2.54483209e-05,1.56576957 L0.241808775,19.7534969 C0.243742827,19.8902486 0.351324437,20 0.483565203,20 L4.79480758,20 C4.92825713,20 5.03656401,19.8882486 5.03656401,19.7499969 L5.03656401,7.84184802 C5.03656401,7.57759472 5.24447454,7.36259203 5.50001108,7.36259203 C5.75554763,7.36259203 5.96345816,7.57759472 5.96345816,7.84184802 L5.96345816,19.7499969 C5.96345816,19.8882486 6.07176504,20 6.20521458,20 L10.516457,20 C10.6486977,20 10.7562793,19.8902486 10.7582134,19.7534969 L10.9999852,1.56576957 C11.0006951,1.49876873 10.9757942,1.43451793 10.930344,1.38676733 C10.8848938,1.33901674 10.8227624,1.3122664 10.7582134,1.3122664 Z M10.5130724,1.81227265 L10.4879297,3.70579632 C10.0375375,3.68629608 9.68239729,3.53529419 9.43362992,3.25279066 C9.04319329,2.80903511 8.98396297,2.14452681 8.98082013,1.81227265 L10.5130724,1.81227265 Z M0.959341853,0.50000625 L10.0406803,0.50000625 L10.0406803,1.3122664 L0.959341853,1.3122664 L0.959341853,0.50000625 Z M0.486708037,1.81227265 L1.88043384,1.81227265 C1.87777452,2.14302679 1.81975298,2.80478506 1.42859108,3.25079063 C1.20569165,3.50479381 0.897210451,3.65279566 0.511850705,3.69554619 L0.486708037,1.81227265 Z M4.55305116,7.84184802 L4.55305116,19.4999937 L0.721937041,19.4999937 L0.518619885,4.19855248 C1.0456489,4.15105189 1.47186548,3.94604933 1.78687411,3.58679483 C2.2868264,3.01678771 2.36128738,2.2162777 2.36418846,1.81227265 L5.25825466,1.81227265 L5.25825466,6.89908624 C4.8535544,7.01033763 4.55305116,7.38884236 4.55305116,7.84184802 Z M6.44672926,19.4999937 L6.44672926,7.84184802 C6.44672926,7.38884236 6.14622602,7.01033763 5.74152576,6.89908624 L5.74152576,1.81227265 L8.49634025,1.81227265 C8.49924133,2.2162777 8.57394407,3.01678771 9.07389636,3.58679483 C9.4159817,3.97679971 9.89006606,4.18305229 10.4811605,4.20530257 L10.2778434,19.4999937 L6.44672926,19.4999937 Z" id="Shape"></path>
        </g>
    </g>
</svg>