<?xml version="1.0" encoding="UTF-8"?>
<svg width="20px" height="20px" viewBox="0 0 20 20" version="1.1" xmlns="http://www.w3.org/2000/svg" xmlns:xlink="http://www.w3.org/1999/xlink">
    <!-- Generator: Sketch 63.1 (92452) - https://sketch.com -->
    <title>icon-jacket</title>
    <desc>Created with Sketch.</desc>
    <g id="icon-jacket" stroke="none" stroke-width="1" fill="none" fill-rule="evenodd">
        <g id="noun_Jacket_3126414" fill="#FFFFFF" fill-rule="nonzero">
            <g id="Group">
                <path d="M10,4.67250011 C9.6555274,4.6726303 9.32066677,4.55892271 9.0475,4.3490625 L9.0475,4.3490625 L5.7471875,1.8103125 C5.62845052,1.71921118 5.59097188,1.5567164 5.6578125,1.4228125 L6.2828125,0.1728125 C6.33575768,0.0668588597 6.44405439,-5.51943434e-05 6.5625,-4.68160277e-06 L13.4375,-4.68160277e-06 C13.556508,-0.00064962662 13.6655544,0.0663533244 13.71875,0.1728125 L14.34375,1.4228125 C14.4105906,1.5567164 14.373112,1.71921118 14.254375,1.8103125 L10.9525,4.3490625 C10.6793332,4.55892271 10.3444726,4.6726303 10,4.67250011 Z M9.4284375,3.8534375 C9.76540719,4.11261512 10.2345928,4.11261512 10.5715625,3.8534375 L13.6678125,1.471875 L13.244375,0.625 L6.755625,0.625 L6.3321875,1.471875 L9.4284375,3.8534375 Z" id="Shape"></path>
                <path d="M10,3.07093886 C9.6394166,3.0714135 9.28980258,2.94696151 9.010625,2.71875 L6.3646875,0.554375 L6.7603125,0.070625 L9.40625,2.2353125 C9.75201418,2.51687273 10.2479858,2.51687273 10.59375,2.2353125 L13.2396875,0.070625 L13.6353125,0.554375 L10.989375,2.71875 C10.7101717,2.94691588 10.3605745,3.07136187 10,3.07093886 Z" id="Path"></path>
                <rect id="Rectangle" x="8.125" y="1.25" width="3.75" height="1"></rect>
                <path d="M19.6875,16.875 L16.5625,16.875 L16.5625,16.25 L19.375,16.25 L19.375,4.2965625 C19.3738968,3.663838 18.9927222,3.09373974 18.4084375,2.8509375 C17.0296178,2.26895073 15.557769,1.93842769 14.0625,1.875 L14.0625,1.25 C15.6416011,1.30941768 17.1965815,1.65667508 18.6509375,2.2746875 C19.4672382,2.61489206 19.9992331,3.41220657 20,4.2965625 L20,16.5625 C20,16.735089 19.860089,16.875 19.6875,16.875 Z" id="Path"></path>
                <path d="M3.4375,16.875 L0.3125,16.875 C0.139911016,16.875 0,16.735089 0,16.5625 L0,4.2965625 C0.000766930314,3.41220657 0.532761786,2.61489206 1.3490625,2.2746875 C2.80341854,1.65667508 4.35839887,1.30941768 5.9375,1.25 L5.9375,1.875 C4.44236545,1.93944152 2.97069416,2.26992469 1.5915625,2.8509375 C1.00727782,3.09373974 0.626103171,3.663838 0.625,4.2965625 L0.625,16.25 L3.4375,16.25 L3.4375,16.875 Z" id="Path"></path>
                <path d="M16.875,20.0000019 L3.125,20.0000019 C3.03742377,20.0003022 2.95373945,19.9638422 2.89432802,19.8994996 C2.83491658,19.835157 2.80523061,19.748837 2.8125,19.6615625 C2.8184375,19.586875 3.4375,12.1303125 3.4375,8.4375 C3.4375,5.838125 6.8225,2.423125 6.9665625,2.2790625 L7.4084375,2.7209375 C7.375,2.754375 4.0625,6.0965625 4.0625,8.4375 C4.0625,11.703125 3.585,17.8671875 3.4640625,19.375 L16.5359375,19.375 C16.415,17.8671875 15.9375,11.703125 15.9375,8.4375 C15.9375,6.09375 12.625,2.754375 12.5915625,2.7209375 L13.0334375,2.2790625 C13.1775,2.423125 16.5625,5.838125 16.5625,8.4375 C16.5625,12.1315625 17.1803125,19.586875 17.1875,19.6615625 C17.1947694,19.748837 17.1650834,19.835157 17.105672,19.8994996 C17.0462605,19.9638422 16.9625762,20.0003022 16.875,20.0000019 Z" id="Path"></path>
                <path d="M19.0625,18.125 L16.5625,18.125 L16.5625,17.5 L18.75,17.5 L18.75,16.5625 L19.375,16.5625 L19.375,17.8125 C19.375,17.985089 19.235089,18.125 19.0625,18.125 Z" id="Path"></path>
                <path d="M3.4375,18.125 L0.9375,18.125 C0.764911016,18.125 0.625,17.985089 0.625,17.8125 L0.625,16.5625 L1.25,16.5625 L1.25,17.5 L3.4375,17.5 L3.4375,18.125 Z" id="Path"></path>
                <path d="M10.7165625,19.9084375 L9.7790625,18.9709375 C9.72045332,18.912346 9.6875177,18.8328734 9.6875,18.75 L9.6875,4.375 L10.3125,4.375 L10.3125,18.620625 L11.1584375,19.4665625 L10.7165625,19.9084375 Z" id="Path"></path>
                <path d="M4.0625,16.25 L3.4375,16.25 L3.4375,15.625 L4.0625,15.625 C4.39793376,15.6383445 4.72368869,15.5109389 4.9610638,15.2735638 C5.1984389,15.0361887 5.32584452,14.7104338 5.3125,14.375 L5.3125,13.75 L5.9375,13.75 L5.9375,14.375 C5.95656436,14.8778833 5.76514926,15.365954 5.40930165,15.7218017 C5.05345404,16.0776493 4.56538328,16.2690644 4.0625,16.25 L4.0625,16.25 Z" id="Path"></path>
                <path d="M16.5625,16.25 L15.9375,16.25 C15.4346167,16.2690644 14.946546,16.0776493 14.5906983,15.7218017 C14.2348507,15.365954 14.0434356,14.8778833 14.0625,14.375 L14.0625,13.75 L14.6875,13.75 L14.6875,14.375 C14.6875,15.610625 15.8865625,15.625 15.9375,15.625 L16.5625,15.625 L16.5625,16.25 Z" id="Path"></path>
                <path d="M16.5625,8.4375 L15.9375,8.4375 C15.9738842,7.03345537 16.1878773,5.63966557 16.574375,4.289375 L17.175625,4.460625 C16.8080338,5.75589377 16.6020948,7.09166319 16.5625,8.4375 L16.5625,8.4375 Z" id="Path"></path>
                <path d="M3.4375,8.4375 C3.39790518,7.09166319 3.19196618,5.75589377 2.824375,4.460625 L3.425625,4.289375 C3.81212274,5.63966557 4.02611578,7.03345537 4.0625,8.4375 L3.4375,8.4375 Z" id="Path"></path>
            </g>
        </g>
    </g>
</svg>