<?xml version="1.0" encoding="UTF-8"?>
<svg width="20px" height="20px" viewBox="0 0 20 20" version="1.1" xmlns="http://www.w3.org/2000/svg" xmlns:xlink="http://www.w3.org/1999/xlink">
    <!-- Generator: Sketch 63.1 (92452) - https://sketch.com -->
    <title>icon-tshirt</title>
    <desc>Created with Sketch.</desc>
    <g id="icon-tshirt" stroke="none" stroke-width="1" fill="none" fill-rule="evenodd">
        <g id="noun_Tshirt_1407518" transform="translate(0.000000, 2.000000)" fill="#FFFFFF" fill-rule="nonzero">
            <path d="M4.6868816,14.1399638 L15.3129888,14.1399638 L15.3129888,6.09385806 C15.3129888,5.92260827 15.4538199,5.78297382 15.6265373,5.78297382 C15.6557664,5.78297382 15.6849955,5.78824304 15.7142246,5.79614688 L17.4865711,6.16235798 L18.2465277,2.6530545 L13.4077827,0.753499094 C13.3068095,1.50699819 12.9507459,2.18672814 12.4272792,2.70047752 C11.8028393,3.31434217 10.9445666,3.69636094 10.0012638,3.69636094 C9.05530374,3.69636094 8.19703102,3.31434217 7.57259112,2.70047752 C7.05178166,2.18672814 6.69306087,1.50699819 6.59208761,0.753499094 L1.75334263,2.6530545 L2.51595648,6.16235798 L4.31221765,5.79087766 C4.47962069,5.7566277 4.64436654,5.86201219 4.67891002,6.03062737 C4.6842244,6.05170426 4.6868816,6.07278116 4.6868816,6.09385806 L4.6868816,14.1399638 L4.6868816,14.1399638 Z M18.097725,6.28881936 L18.6025913,6.39420385 L19.3280045,3.07722707 L18.8364241,2.88490038 L18.097725,6.28881936 L18.097725,6.28881936 Z M1.1661034,2.88490038 L0.674523053,3.07722707 L1.39727903,6.39420385 L1.90480253,6.28881936 L1.1661034,2.88490038 L1.1661034,2.88490038 Z M6.94283683,0.00790383665 C7.9658554,0.187057467 8.98621678,0.273999671 10.0012638,0.271365058 C11.0163108,0.271365058 12.0366721,0.181788243 13.0596907,0.00790383665 C13.1181489,-0.00526922444 13.1792643,-0.00263461222 13.2403797,0.0210768977 L19.8036417,2.59772765 C19.9418156,2.6530545 20.0268457,2.80059279 19.9923023,2.95076568 L19.1473155,6.82628026 C19.1101148,6.99226083 18.945369,7.09764532 18.7779659,7.06339536 L15.9374287,6.47324222 L15.9374287,15.6891158 C15.9374287,15.8603656 15.7992547,16 15.6265373,16 L4.37599024,16 C4.20327282,16 4.06244169,15.8603656 4.06244169,15.6891158 L4.06244169,6.47324222 L1.22456161,7.06339536 C1.05715857,7.09764532 0.889755531,6.99226083 0.852554856,6.82628026 L0.0102252807,2.96130413 C-0.0296325856,2.81376585 0.0500831471,2.65568912 0.196228657,2.59772765 L6.74620469,0.0263461222 C6.78606255,0.0105384489 6.82857761,0 6.87374986,0 C6.89766458,0 6.9215793,0.00263461222 6.94283683,0.00790383665 Z M12.7886572,0.67709534 C11.8612975,0.816729788 10.9312807,0.887864317 10.0012638,0.89049893 C9.0685897,0.89049893 8.13857282,0.821999012 7.21387032,0.679729952 C7.29624324,1.2935946 7.58853426,1.84422855 8.01368484,2.2631319 C8.52120833,2.76370822 9.22536397,3.07459246 10.0012638,3.07459246 C10.7745064,3.07459246 11.478662,2.76370822 11.9888427,2.2631319 C12.4139933,1.84422855 12.7036271,1.29095999 12.7886572,0.67709534 L12.7886572,0.67709534 Z M15.3129888,14.7590976 L4.6868816,14.7590976 L4.6868816,15.3782315 L15.3129888,15.3782315 L15.3129888,14.7590976 Z" id="Shape"></path>
        </g>
    </g>
</svg>